<?xml version="1.0" encoding="UTF-8"?>
<svg id="Layer_1" data-name="Layer 1" xmlns="http://www.w3.org/2000/svg" version="1.1" viewBox="0 0 317.6 396.58">
  <defs>
    <style>
      .cls-1 {
        fill: #040b13;
      }

      .cls-1, .cls-2, .cls-3 {
        stroke-width: 0px;
      }

      .cls-2 {
        fill: #060d15;
      }

      .cls-3 {
        fill: #fcfefe;
      }
    </style>
  </defs>
  <path class="cls-1" d="M159.99,261.46c-31.03.19-57.74-9.13-82.5-24.93-19.79-12.63-38.04-27.19-54.29-44.26-.86-.91-1.51-1.42-.25-2.65,20.97-20.47,43.45-38.8,70.2-51.22,15.01-6.97,30.44-12.47,46.81-15.16,17.88-2.94,35.42-1.36,52.7,3.74,32.64,9.63,61.15,26.69,86.36,49.55,4.67,4.24,9.22,8.62,13.87,12.89.98.9,1.13,1.43.07,2.49-18.64,18.58-38.69,35.38-61.25,48.9-22.51,13.5-46.79,20.99-71.72,20.64ZM110.76,145.77c-4.88,2.06-9.76,4.11-14.63,6.19-21.29,9.1-39.84,22.25-56.29,39.06,24.29,21.98,50.3,40.89,81.76,50.96-.41-.66-.95-1.14-1.51-1.57-7.23-5.51-12.62-12.59-16.93-20.53-3.52-6.47-5.66-13.45-6.92-20.71-.55-3.17-1.42-3.46-3.83-1.47-1.52,1.25-3.15,2.32-5.04,2.96-4.27,1.45-8.91.01-11.77-3.71-2.95-3.83-3.18-8.7-.59-12.66,2.58-3.95,7.05-5.75,11.47-4.58,2.55.68,4.48,2.3,6.07,4.35.68.88,1.63,1.28,2.58,1.03,1.05-.27.57-1.4.63-2.14.67-8.38,2.74-16.36,6.44-23.9,2.33-4.75,5.76-8.73,8.87-12.94.24-.04.45-.16.29-.42-.04-.07-.37.05-.57.08ZM220.8,185.12c1.81-.2,3.06-1.13,4.21-2.51,2.13-2.57,5.05-3.76,8.29-3.26,4.66.73,7.85,3.56,9.27,8.11,1.3,4.17-.48,8.79-4.13,11.58-3.5,2.66-8.22,2.83-12.16.38-1.04-.65-1.96-1.49-3.02-2.09-2-1.14-2.69-.79-3.02,1.51-1.48,10.09-5.07,19.36-10.8,27.74-4.16,6.08-9.05,11.5-14.97,15.97,31.44-10.3,57.08-29.87,81.4-51.57-20.08-20.4-43.47-35.25-70.38-45,9.7,11.42,14.14,24.63,15.3,39.15ZM157.81,137.61c-28.29,0-50.28,22.16-50.3,50.67-.02,29.41,22.13,52.36,50.53,52.34,28.47-.01,50.7-22.57,50.74-51.51.05-29.47-21.76-51.5-50.97-51.5Z"/>
  <path class="cls-1" d="M289.38,174.76c-8.27-7.49-16.36-15.17-24.97-22.25-18.7-15.38-39.03-27.87-62.51-34.04-39.09-10.29-76.87-7.04-112.67,12.91-3.29,1.83-3.3,1.81-5.48-1.23-1.19-1.67-2.38-3.34-3.63-5.1,12.67-7.97,25.95-14.27,40.32-18.04,10.11-2.66,20.37-4.46,30.82-4.95,1.42-.07,1.96-.44,1.94-2-.1-6.43-.14-12.86-.02-19.29.03-1.6-.86-2.35-1.74-3.29-4.02-4.31-2.62-11.06,2.7-12.99,3.18-1.16,6.35-.28,8.61,2.38,2.13,2.51,2.72,6.31.77,9.19-1.52,2.25-1.61,4.5-1.59,6.96.05,5.44.12,10.89,0,16.33-.04,1.83.44,2.31,2.26,2.37,19.87.67,39.11,4.44,57.59,12.03,20.95,8.61,39.19,21.4,55.92,36.59,5.94,5.4,12.01,10.66,18.08,15.91,1.23,1.06,1.27,1.66,0,2.71-2.2,1.81-4.24,3.82-6.42,5.82Z"/>
  <path class="cls-2" d="M254.48,237.07c0,1.19,0,1.73,0,2.28-.01,9.15-.05,18.3,0,27.45,0,1.42-.32,2.51-1.37,3.49-10.6,10.02-21.19,20.06-31.75,30.13-.81.77-1.66.9-2.66.9-43.81-.06-87.63-.11-131.44-.13-1.3,0-1.93-.19-1.84-1.71.15-2.62-.86-6.03.42-7.67,1.35-1.74,4.87-.55,7.44-.55,40.22-.04,80.45-.05,120.67,0,1.78,0,3.03-.52,4.3-1.73,8.66-8.26,17.37-16.46,26.11-24.63,1.23-1.15,1.81-2.33,1.77-4.06-.1-5.11,0-10.22-.08-15.33-.02-1.29.33-2.14,1.36-2.91,2.26-1.68,4.44-3.46,7.08-5.54Z"/>
  <path class="cls-2" d="M250.04,122.6c-2.05-1.7-3.54-2.92-5.02-4.16-9.09-7.64-18.16-15.31-27.28-22.91-1.18-.99-1.64-2-1.64-3.55,0-12.37-.14-24.73-.09-37.1,0-2.12-.61-2.53-2.58-2.52-19.17.07-38.35,0-57.53.06-1.86,0-2.64-.38-2.45-2.41.18-1.88.15-3.8-.02-5.68-.16-1.82.56-2.13,2.2-2.12,22.6.07,45.21.09,67.81.03,1.86,0,2.31.49,2.3,2.34-.09,13.85-.04,27.7-.11,41.55,0,1.44.37,2.45,1.46,3.4,4.51,3.92,8.95,7.93,13.44,11.88.33.29.62.81,1.44.6,0-5.76-.06-11.57.02-17.38.04-3.06-.26-5.77-2.21-8.48-2.41-3.36-1.09-8.02,2.18-10.24,3.38-2.29,8.03-1.58,10.55,1.62,2.48,3.15,2.14,8.06-1,10.71-1.24,1.05-1.5,2.09-1.5,3.56.04,13.35.02,26.7.02,40.8Z"/>
  <path class="cls-2" d="M63.3,238.13c3.29,2.58,6.24,4.83,9.12,7.16.81.66.38,1.72.38,2.58.02,20.28.04,40.57-.04,60.85,0,2.02.45,2.6,2.51,2.6,19.83-.07,39.66.01,59.49-.04,1.95,0,2.85.36,2.6,2.52-.28,2.43,1.02,5.7-.53,7.09-1.35,1.2-4.51.36-6.87.36-21.46.01-42.92,0-64.38.05-1.54,0-2.27-.14-2.27-2.04.02-26.47-.04-52.93-.08-79.4,0-.39.03-.78.07-1.73Z"/>
  <path class="cls-2" d="M20.56,116.96c0-3.97.02-7.98-.02-11.99,0-.88.52-1.35,1.03-1.85,17.63-17.26,35.27-34.51,52.89-51.78.65-.64,1.31-.84,2.17-.84,8.89.02,17.78,0,26.67,0,.9,0,2.02-.31,1.36,1.43-.24.61.69.4,1.09.4,6.04-.01,12.07-.1,18.11-.06,1.27,0,1.84-.66,2.56-1.48,2.29-2.64,5.56-3.5,8.63-2.38,2.97,1.09,4.62,3.25,4.96,6.42.37,3.45-.83,6.15-3.85,7.89-2.97,1.71-7.18,1.1-9.38-1.51-.91-1.08-1.83-1.37-3.12-1.37-14.11.1-28.22.17-42.33.19-1.21,0-1.92.53-2.71,1.29-18.8,18.29-37.62,36.56-56.45,54.82-.37.36-.66.98-1.6.81Z"/>
  <path class="cls-2" d="M231.06,250.07c0,3.97-.04,7.49.03,11.01.02.99-.55,1.46-1.14,2.01-5.72,5.28-11.45,10.54-17.15,15.85-.96.89-1.95,1.24-3.27,1.24-32.22-.04-64.44-.06-96.66,0-1.87,0-2.43-.47-2.26-2.32.16-1.8.15-3.63,0-5.43-.16-1.87.33-2.55,2.35-2.51,7.01.16,14.03.12,21.04.11,23.9-.02,47.8-.07,71.7-.05,1.51,0,2.6-.45,3.7-1.45,6.87-6.3,13.83-12.5,21.67-18.46Z"/>
  <path class="cls-2" d="M272.88,222.8c0,18.7-.02,36.91.03,55.12,0,1.6-1.02,2.38-1.93,3.24-10.43,9.97-20.93,19.86-31.32,29.86-4.42,4.25-9.17,8.13-13.01,13.02-3.06,3.89-7.93,4.14-11.25,1.15-3.2-2.9-3.64-7.68-.99-10.88,2.05-2.48,4.81-3,7.76-2.56,1.53.23,2.58-.19,3.67-1.24,11.77-11.29,23.57-22.55,35.41-33.77,1.23-1.16,1.79-2.32,1.77-4.04-.09-12.94-.05-25.88-.16-38.82-.02-1.99.44-3.3,2.11-4.5,2.68-1.94,5.11-4.23,7.9-6.57Z"/>
  <path class="cls-2" d="M110.22,79c-.08,3.28-1.55,5.67-4.54,7-3.05,1.35-6.44.89-8.54-1.56-1.34-1.56-2.81-1.67-4.62-1.92-5.24-.73-8.86,1.36-12.57,5.06-14.17,14.12-28.69,27.89-43.09,41.77-1.15,1.11-1.87,2.01-1.39,3.95.91,3.72-1.59,7.57-5.13,8.75-3.66,1.22-7.38-.23-9.21-3.61-1.91-3.52-1.41-7.99,1.68-10.06,8.66-5.79,15.24-13.86,22.74-20.91,11.76-11.06,23.23-22.44,34.78-33.73,1.02-1,2-1.44,3.42-1.37,2.61.12,5.22,0,7.83.05,2.94.05,5.75-.2,8.63-1.13,5.03-1.62,10.06,2.44,10.02,7.72Z"/>
  <path class="cls-2" d="M45.89,157.38c0-7.47.01-14.8-.02-22.13,0-.9.29-1.49.96-2.1,12.91-11.87,25.12-24.49,37.75-36.66,1.71-1.65,3.33-2.49,5.74-2.4,5.21.19,10.44.12,15.66.03,1.58-.02,2.2.41,2.07,2.08-.14,1.88-.14,3.8,0,5.68.11,1.53-.4,1.99-1.9,1.96-4.24-.08-8.48.02-12.71-.02-1.21-.01-2.15.29-3.06,1.15-11.15,10.52-22.19,21.15-33.12,31.9-1.21,1.19-1.97,2.47-1.59,4.13,1.9,8.48-3.17,12.77-9.77,16.37Z"/>
  <path class="cls-2" d="M294.04,207.12c0,2.49,0,4.52,0,6.55.02,14.9.05,29.81.04,44.71,0,1.21.23,2.1,1.19,2.99,3.36,3.14,3.57,7.62.68,11.03-2.77,3.26-7.39,3.82-10.77,1.29-3.29-2.45-4.22-7.57-1.77-11.05,1.02-1.45,1.33-2.85,1.33-4.55.04-14.08.15-28.15.19-42.23,0-1.34.28-2.26,1.47-3.07,2.49-1.69,4.84-3.58,7.65-5.68Z"/>
  <path class="cls-2" d="M173.41,337.15c0-2.23,0-4.45,0-6.68.02-2.69,0-5.12-1.91-7.57-2.49-3.19-1.37-7.86,1.7-10.12,3.25-2.39,7.81-1.88,10.39,1.16,2.68,3.15,2.54,7.52-.53,10.43-1.02.97-1.31,1.91-1.31,3.21.03,6.27.02,12.53-.02,18.8-.01,1.46.28,2.57,1.43,3.68,3.3,3.17,3.29,7.83.19,10.98-3.12,3.17-8.1,3.16-11.19-.01-3.22-3.3-3.15-7.88.27-11.17.78-.76,1.11-1.49,1.09-2.57-.06-3.38-.02-6.76-.02-10.14-.03,0-.06,0-.08,0Z"/>
  <path class="cls-1" d="M83.35,332.07c17.37,0,34.75.02,52.12-.03,1.55,0,1.98.6,1.91,2.05-.09,1.89-.13,3.8,0,5.68.12,1.62-.56,1.89-1.98,1.88-13.22-.07-26.43-.07-39.65-.1-.55,0-1.24,0-1.64-.3-3.74-2.84-7.42-5.75-11.12-8.64.11-.18.22-.37.34-.55Z"/>
  <path class="cls-2" d="M284.86,127.97c0-2.22,0-4.45,0-6.67,0-2.2-.04-4.27-1.23-6.36-1.53-2.71-.4-6.16,2.02-7.88,2.21-1.57,5.21-1.42,7.24.35,2.36,2.06,3,5.24,1.33,8.02-.85,1.42-1.1,2.81-1.08,4.4.05,5.76.04,11.53.03,17.29,0,3.19-1.71,5.36-4.17,5.34-2.49-.02-4.13-2.14-4.14-5.35,0-3.05,0-6.09,0-9.14Z"/>
  <path class="cls-2" d="M91.64,282.75c-4.54.06-8.44-3.71-8.45-8.16,0-4.35,3.86-8.23,8.19-8.21,4.12.02,8.05,3.88,8.16,8.02.12,4.49-3.48,8.29-7.9,8.35Z"/>
  <path class="cls-2" d="M149.2,22.72c-.02-4.13,3.49-7.72,7.58-7.75,4.24-.04,7.9,3.71,7.85,8.05-.05,4.2-3.47,7.57-7.71,7.59-4.21.02-7.69-3.54-7.71-7.89Z"/>
  <path class="cls-2" d="M149.02,367.81c.17-4.14,3.8-7.48,7.96-7.31,4.24.17,7.58,3.87,7.37,8.18-.2,4.11-3.82,7.41-8.01,7.31-4.23-.11-7.5-3.76-7.32-8.18Z"/>
  <path class="cls-2" d="M156.59,347.34c-4.25.04-7.68-3.51-7.65-7.91.03-4.11,3.17-7.25,7.32-7.33,4.3-.08,8.07,3.45,8.05,7.56-.02,4.1-3.57,7.64-7.71,7.68Z"/>
  <path class="cls-2" d="M206.53,339.81c-.03,4.21-3.45,7.61-7.67,7.61-4.15,0-7.55-3.66-7.49-8.09.05-4.15,3.39-7.29,7.67-7.21,4.35.08,7.51,3.33,7.49,7.69Z"/>
  <path class="cls-2" d="M156.39,311.28c4.3-.01,7.51,3.29,7.46,7.69-.04,4.03-3.32,7.19-7.44,7.18-4.11-.01-7.4-3.35-7.42-7.53-.03-4.37,2.95-7.33,7.4-7.34Z"/>
  <path class="cls-2" d="M206.26,318.71c.01,4.15-3.1,7.34-7.19,7.39-4.19.05-7.6-3.42-7.55-7.68.05-4.22,3.24-7.21,7.64-7.17,4.08.03,7.09,3.2,7.1,7.46Z"/>
  <path class="cls-2" d="M207.51,71.06c.04,3.72-2.92,6.79-6.58,6.82-3.64.03-6.68-2.96-6.77-6.67-.09-3.78,2.82-6.81,6.54-6.79,3.69.01,6.77,3.01,6.81,6.64Z"/>
  <path class="cls-2" d="M172.62,89.25c.04-3.67,2.75-6.39,6.36-6.38,3.66,0,6.52,2.9,6.49,6.56-.03,3.84-2.94,6.65-6.78,6.53-3.49-.11-6.11-3-6.07-6.71Z"/>
  <path class="cls-2" d="M179,64.78c3.05-.04,5.88,2.85,5.91,6.04.03,2.97-2.75,5.79-5.81,5.9-3.08.11-5.87-2.69-5.94-5.98-.07-3.32,2.47-5.91,5.84-5.95Z"/>
  <path class="cls-2" d="M261.74,92.21c-.01-2.97,2.3-5.44,5.15-5.51,2.9-.07,5.49,2.55,5.44,5.5-.05,3.01-2.57,5.58-5.45,5.57-2.72-.02-5.13-2.62-5.14-5.55Z"/>
  <path class="cls-2" d="M133.96,39.28c-2.93,0-5.33-2.53-5.32-5.61.01-2.85,2.29-5.21,5.1-5.28,2.96-.08,5.53,2.65,5.45,5.8-.07,2.88-2.34,5.08-5.23,5.08Z"/>
  <path class="cls-2" d="M137.21,362.96c-2.92-.05-5.22-2.54-5.19-5.64.03-2.96,2.34-5.19,5.35-5.15,2.87.04,5.28,2.49,5.27,5.34-.01,3.01-2.49,5.5-5.43,5.45Z"/>
  <path class="cls-2" d="M30.77,252.82c-.04,2.71-2.49,4.99-5.35,5-2.82,0-5.36-2.54-5.34-5.36.02-2.83,2.56-5.32,5.41-5.31,2.87,0,5.32,2.64,5.27,5.67Z"/>
  <path class="cls-2" d="M41.32,271.33c.01-2.86,2.24-5.04,5.16-5.07,2.86-.02,5.22,2.36,5.26,5.31.04,2.87-2.44,5.46-5.18,5.4-2.95-.06-5.25-2.53-5.24-5.64Z"/>
  <path class="cls-2" d="M25.65,171.85c-3.01.05-5.24-2.11-5.32-5.15-.08-3.11,2.02-5.31,5.08-5.32,2.96-.01,5.36,2.24,5.46,5.11.1,2.77-2.37,5.31-5.22,5.36Z"/>
  <path class="cls-2" d="M133.58,97.69c-2.89-.01-5.37-2.47-5.36-5.31.02-2.74,2.45-5.17,5.21-5.2,2.76-.03,5.25,2.36,5.31,5.09.07,2.98-2.27,5.43-5.17,5.42Z"/>
  <path class="cls-2" d="M200.18,87.24c2.68.02,5.35,2.81,5.25,5.49-.11,2.9-2.46,5.25-5.19,5.17-2.69-.08-5.01-2.54-5.04-5.36-.03-2.93,2.22-5.32,4.98-5.3Z"/>
  <path class="cls-2" d="M41.35,252.47c0-2.97,2.12-5.11,5.07-5.1,2.87,0,5.21,2.37,5.27,5.33.05,2.57-2.61,5.11-5.31,5.07-2.73-.04-5.03-2.45-5.03-5.31Z"/>
  <path class="cls-2" d="M41.45,290.86c.07-2.88,2.42-5.14,5.25-5.03,2.85.11,5.04,2.48,4.94,5.37-.1,2.88-2.48,5.19-5.25,5.07-2.76-.12-5.01-2.58-4.94-5.41Z"/>
  <path class="cls-2" d="M46.49,237.79c-2.82-.02-5.07-2.34-5.06-5.22.01-2.83,2.43-5.31,5.1-5.23,2.61.08,5.1,2.65,5.16,5.33.06,2.7-2.41,5.14-5.19,5.12Z"/>
  <path class="cls-2" d="M25.48,237.66c-2.85.02-5.13-2.22-5.15-5.07-.02-2.98,2.14-5.3,4.93-5.29,2.72.02,5.19,2.45,5.24,5.15.05,2.88-2.17,5.18-5.02,5.2Z"/>
  <path class="cls-3" d="M110.76,145.77c.2-.03.53-.15.57-.08.16.26-.05.37-.29.42-.11-.1-.2-.21-.28-.34Z"/>
  <path class="cls-2" d="M158.48,232.97c-24.37.01-43.49-19.53-43.48-44.45.01-24.03,19.03-43.52,42.48-43.53,25.25-.02,44,18.87,43.97,44.28-.03,24.59-18.81,43.69-42.97,43.7ZM124.53,188.68c.24,19.94,14.87,34.7,34.19,34.51,18.76-.18,33.61-15.4,33.46-34.29-.15-19.32-15.34-34.47-34.35-34.28-18.84.19-33.53,15.22-33.3,34.07Z"/>
  <path class="cls-1" d="M158.16,215.42c-14.43-.01-26.1-11.94-26.11-26.66,0-14.67,11.42-26.39,25.73-26.4,15.35-.01,26.75,11.48,26.72,26.95-.03,14.5-11.76,26.13-26.34,26.12ZM138.82,179.11c.05,3.18,2.56,5.66,5.64,5.57,2.96-.09,5.3-2.61,5.26-5.68-.04-3.03-2.45-5.36-5.53-5.36-3.11,0-5.42,2.35-5.37,5.47Z"/>
</svg>