<?xml version="1.0" encoding="utf-8"?>
<!-- Generator: Adobe Illustrator 28.3.0, SVG Export Plug-In . SVG Version: 6.00 Build 0)  -->
<svg version="1.1" id="Layer_1" xmlns="http://www.w3.org/2000/svg" xmlns:xlink="http://www.w3.org/1999/xlink" x="0px" y="0px"
	 viewBox="0 0 449.33 449.33" style="enable-background:new 0 0 449.33 449.33;" xml:space="preserve">
<style type="text/css">
	.st0001{fill:none;stroke:#000000;stroke-width:3;stroke-miterlimit:10;}
	.st111{fill:#231F20;stroke:#000000;stroke-miterlimit:10;}
	.st2222{fill:none;stroke:#000000;stroke-miterlimit:10;}
</style>
<g>
	<path class="st0001" d="M238,322.08c-17.34,0.44-32.9-3.91-47.84-11.23c-19.46-9.53-38-20.8-56.64-31.91
		c-21.85-13.02-42.07-28.42-61.43-45.11c-6-5.18-6.1-5.71-0.08-11c16.87-14.82,34.21-29.01,52.55-41.84
		c20.22-14.15,41.08-27.12,63.49-37.17c15.97-7.16,32.59-11.48,50.14-11.1c18.17,0.4,35.07,5.8,51.06,14.4
		c37.82,20.35,73.25,44.41,105.02,74.11c1.41,1.31,2.75,2.72,3.99,4.21c2.4,2.89,2.32,3.85-0.42,6.36
		c-7.82,7.18-16.08,13.78-24.52,20.14c-29.05,21.88-60.07,40.36-91.8,57.55c-11.01,5.96-22.68,10.4-35.16,11.9
		C243.34,321.76,240.31,321.89,238,322.08z M316.81,227.56c-0.38-43.44-31.33-83.81-80.47-84.27
		c-46.46-0.43-80.71,36.11-81.69,81.47c-1.22,56.32,41.3,86.16,79.69,86.49C275.01,311.6,316.02,281.1,316.81,227.56z
		 M148.83,273.23c3.76,0.02,4.72-1.86,3.12-5.46c-12.38-27.98-11.53-55.75,1.26-83.31c0.69-1.5,1.25-2.92,0.05-4.38
		c-1.24-1.5-2.81-1.46-4.43-0.88c-2.52,0.9-4.85,2.21-7.12,3.63c-19.3,12.05-37.09,26.24-54.06,41.58
		c-3.92,3.55-3.78,4.81,0.35,8.28c8.99,7.55,18.2,14.81,27.68,21.67c8.55,6.18,17.33,12.01,26.75,16.69
		C144.57,272.1,146.73,273.12,148.83,273.23z M321.52,273.17c1.33-0.23,2.68-0.96,4-1.72c18.72-10.86,36.43-23.29,53.03-37.4
		c5.58-4.75,5.55-6.09,0.11-11.24c-14.89-14.1-31.13-26.31-48.14-37.45c-2.96-1.94-5.85-4.02-9.07-5.47
		c-1.16-0.52-2.37-0.95-3.38,0.28c-0.91,1.11-0.78,2.36-0.21,3.6c0.29,0.62,0.61,1.22,0.9,1.84c8.79,18.87,11.53,38.61,7.74,59.24
		c-1.51,8.25-4.19,16.13-7.76,23.68C317.53,271.11,318.82,273.24,321.52,273.17z"/>
	<path class="st111" d="M299.88,357.31c6.58-4.22,11.64-9.84,16.99-15.12c2.44-2.4,2.7-4.69,0.97-6.68c-1.73-1.98-4.54-2.15-6.9-0.11
		c-2.91,2.52-5.6,5.31-8.45,7.9c-12.24,11.15-26.32,18.67-42.7,23.34c2.19-2.94,4.02-5.33,5.79-7.76c1.2-1.65,2.4-3.3,3.46-5.05
		c1.09-1.8,0.86-3.6-0.56-5.14c-1.37-1.47-3.02-1.93-4.93-1.24c-1.8,0.65-2.96,2.09-4.02,3.62c-3.87,5.6-7.76,11.19-11.51,16.88
		c-1.02,1.55-2.17,2.49-3.92,2.98c-10.23,2.92-20.24,6.45-29.35,12.3c-1.52,0.97-3.02,1.97-4.93,3.22c0.81-5.7,2.4-10.76,4.47-15.63
		c7.09-16.7,19.79-26.66,35.96-32.55c12.15-4.43,24.85-5.96,37.42-8.27c15.58-2.85,30.16-8.39,42.79-18.57
		c8.03-6.48,13.83-14.78,17.1-24.89c0.45-1.4,0.91-2.8,1.48-4.15c0.54-1.29,1.58-1.99,2.95-1.89c1.39,0.1,2.21,1.01,2.6,2.36
		c0.19,0.66,0.42,1.33,0.46,2.01c1.04,17.32,0.8,34.53-4.52,51.22c-2.27,7.13-5.55,13.79-9.37,20.17c-0.58,0.96-1.11,1.63-2.39,1.62
		c-12.69-0.08-25.38-0.08-38.07-0.12C300.57,357.76,300.42,357.61,299.88,357.31z"/>
	<path class="st111" d="M156.33,101.23c-3.91,2.78-7.18,5.3-10.14,8.2c-2.33,2.28-2.67,4.83-1.03,7.06c1.45,1.98,3.52,2.18,6.3,0.18
		c3.58-2.57,6.96-5.44,10.52-8.06c13.35-9.81,28.26-15.32,45.06-17.54c-3.23,3.48-6.07,6.52-8.91,9.58
		c-1.78,1.92-3.62,3.77-5.29,5.78c-2.58,3.1-2.73,5.83-0.58,7.78c2.23,2.04,4.71,1.62,7.37-1.38c6.25-7.02,12.51-14.03,18.64-21.15
		c1.84-2.13,3.7-3.38,6.61-3.74c11.73-1.45,23.01-4.62,33.42-10.66c0.13-0.07,0.33-0.01,0.76-0.01
		c-3.09,10.88-8.24,20.25-16.47,27.76c-10.18,9.29-22.47,13.5-35.36,16.39c-8.66,1.94-17.48,2.12-26.27,2.31
		c-27.38,0.58-49.02,16.63-58.38,43.47c-0.32,0.93-0.7,1.83-0.99,2.77c-0.5,1.59-1.47,2.57-3.12,2.46c-1.78-0.13-2.63-1.36-2.9-3.11
		c-0.06-0.39-0.16-0.78-0.18-1.17c-1.16-18.29-1.16-36.5,3.9-54.3c1.7-5.98,4.2-11.6,7.11-17.04c0.48-0.91,0.92-1.61,2.16-1.35
		C137.61,97.37,146.66,99.23,156.33,101.23z"/>
	<path class="st2222" d="M160.57,349.68c-0.09,2.66-0.42,6.17-1.72,9.53c-0.66,1.72-1.31,1.94-2.83,0.83
		c-11.53-8.45-20.99-18.97-28.93-31.04c-0.96-1.46-1.84-2.99-2.86-4.41c-1.93-2.71-4.01-3.23-6.32-1.67
		c-2.25,1.52-2.99,4.41-1.57,7.03c2.84,5.27,6.6,9.86,10.22,14.54c7.24,9.36,15.87,17.2,25,24.45c1.89,1.5,1.83,2.52,0.26,3.99
		c-0.56,0.52-0.99,1.2-1.5,1.78c-2.62,3.01-2.99,3.15-6.08,0.78c-2.39-1.83-5.19-1.68-7.84-2.17
		c-16.73-3.12-30.54-10.78-39.12-26.81c-4.18-7.8-6-16.37-7.38-25.03c-2.03-12.73-7.91-22.85-17.91-30.44
		c-2.06-1.57-4.02-3.29-6.03-4.93c-1.22-1-1.96-2.16-1.29-3.83c0.71-1.76,2.09-2.15,3.74-1.9c4.15,0.62,8.08,2.06,11.94,3.66
		c7.99,3.31,16.02,6.54,23.78,10.41c6.07,3.03,12.5,5.06,18.89,7.21c14.11,4.74,25.51,13.24,32.88,26.93
		C159.07,334.47,160.62,341.82,160.57,349.68z"/>
	<path class="st2222" d="M311.13,110.05c-0.11-2.82,0.47-6.48,2.05-9.94c1.24-2.72,1.83-2.84,4.15-1c11.47,9.11,21.42,19.68,29,32.56
		c1.63,2.77,3.77,3.48,5.94,2.27c2.44-1.36,3.19-3.93,1.95-6.83c-0.35-0.81-0.75-1.6-1.22-2.33c-4.91-7.63-10.17-14.97-16.55-21.37
		c-4.17-4.18-8.6-8.04-13.28-11.57c-1.68-1.27-1.55-2-0.2-3.49c6.06-6.65,6.01-6.7,14.9-5.23c22.2,3.67,36.55,18.71,41.17,43.14
		c1.15,6.09,1.75,12.28,3.31,18.3c2,7.69,5.63,14.37,10.88,20.13c2.48,2.72,4.95,5.45,7.32,8.26c1,1.19,1.89,2.64,0.82,4.28
		c-1,1.53-2.43,1.09-3.86,0.74c-6.99-1.71-13.45-4.73-19.38-8.85c-8.18-5.69-17.03-9.75-26.38-12.8
		c-8.14-2.66-16.05-5.84-23.07-11.11C317.86,137.1,311.28,124.45,311.13,110.05z"/>
	<path class="st2222" d="M253.7,68.9c-7.8,4.94-15.96,6.98-24.23,8.64c-3.44,0.69-6.91,1.15-10.36,1.79c-1.63,0.3-2.76-0.22-3.99-1.43
		c-7.5-7.38-15.11-14.65-22.69-21.94c-0.62-0.6-1.31-1.14-2.02-1.62c-2.31-1.56-4.52-1.33-6.1,0.68c-1.63,2.09-1.53,4.26,0.29,6.1
		c3.67,3.7,7.43,7.31,11.21,10.89c3.14,2.98,6.36,5.88,9.85,9.1c-6.87,1.64-13.38,3.2-19.9,4.74c-1.03,0.24-1.78-0.5-2.61-0.94
		c-5.55-2.97-11.09-5.97-16.66-8.88c-1.25-0.65-2.63-1.12-4.01-1.43c-2.69-0.6-4.99,0.64-5.81,2.95c-0.83,2.34-0.02,4.27,2.79,5.65
		c4.94,2.44,9.97,4.71,15.19,7.15c-4.69,2.26-8.8,4.46-14.32,2.81c-8.97-2.68-18.23-4.3-27.79-6.47
		c21.04-30.97,50.43-46.1,85.75-50.98c-0.79,2.6-2.01,4.92-2.37,7.53c-1.66,12.03,4.63,20.11,16.53,21.29
		C239.51,65.24,246.41,66.83,253.7,68.9z"/>
	<path class="st2222" d="M225.09,389.06c5.23-3.6,10.35-5.58,15.61-7.21c5.53-1.71,11.12-3.21,16.67-4.87
		c1.56-0.47,2.85-0.26,4.26,0.65c7.73,4.98,15.15,10.45,22.59,15.87c3.03,2.21,6.45,0.68,7.13-2.98c0.41-2.2-0.88-3.51-2.33-4.7
		c-4.55-3.72-9.35-7.06-14.17-10.37c-1.1-0.76-2.19-1.53-3.47-2.43c1.46-1.28,3.18-1.44,4.67-2.07c4.47-1.88,9-3.62,13.46-5.52
		c1.42-0.61,2.68-0.71,4.07,0.01c2.79,1.42,5.76,1.68,8.84,1.66c9.66-0.08,19.33-0.02,28.99,0.02c0.81,0,1.95-0.45,2.36,0.46
		c0.39,0.86-0.54,1.59-1.06,2.26c-12.2,16-27.34,27.99-45.38,35.98c-8.11,3.59-16.51,6.27-25.17,8.01
		c-1.24,0.25-2.19,0.69-2.71-1.28c-3.56-13.41-12.7-19.97-25.35-22.09C231.31,389.99,228.52,389.59,225.09,389.06z"/>
	<path class="st2222" d="M228.15,43.55c28.09,3.96,54.69,12.33,78.54,28.76c3.01,2.07,5.87,4.32,8.55,6.82
		c1.09,1.02,1.08,1.73,0.25,2.93c-3.71,5.39-3.89,5.52-9.27,1.96c-17.83-11.8-36.64-21.3-57.35-26.23
		c-5.52-1.32-11.15-2.18-16.71-3.31c-1.38-0.28-2.79-0.64-4.08-1.21c-3.31-1.45-4.28-6.48-1.88-9.26
		C226.78,43.36,227.43,43.14,228.15,43.55z"/>
	<path class="st2222" d="M245.09,415.77c-2.34,0.52-4.6-0.4-6.64-2.29c-3.85-3.55-8.74-3.97-13.51-4.68
		c-22.6-3.37-43.98-10.54-63.88-22.29c-3.45-2.04-3.68-3.72-0.97-6.9c3.08-3.61,3.08-3.62,7.12-1.29
		c19.23,11.08,39.64,18.42,61.54,21.08c2.81,0.34,5.59,0.97,8.34,1.67c6.06,1.54,10.12,5.39,12.18,11.62
		c0.78,2.37,0.57,3.46-2.08,3.1C246.62,415.7,246.04,415.77,245.09,415.77z"/>
	<path class="st2222" d="M316.81,227.56c-0.79,53.54-41.8,84.04-82.48,83.69c-38.38-0.33-80.9-30.17-79.69-86.49
		c0.98-45.37,35.23-81.9,81.69-81.47C285.48,143.74,316.43,184.11,316.81,227.56z M306.97,228.03
		c0.42-39.09-28.03-73.69-69.87-74.54c-42.94-0.87-72.9,34.73-72.74,73.68c0.17,41.68,30.79,73.72,70.8,73.73
		C275.22,300.92,306.96,268.7,306.97,228.03z"/>
	<path class="st111" d="M148.83,273.23c-2.1-0.11-4.26-1.13-6.39-2.19c-9.42-4.68-18.2-10.51-26.75-16.69
		C106.21,247.49,97,240.23,88,232.68c-4.13-3.47-4.28-4.73-0.35-8.28c16.96-15.35,34.76-29.53,54.06-41.58
		c2.27-1.42,4.61-2.73,7.12-3.63c1.62-0.58,3.19-0.61,4.43,0.88c1.2,1.46,0.65,2.89-0.05,4.38c-12.79,27.56-13.63,55.33-1.26,83.31
		C153.55,271.37,152.59,273.25,148.83,273.23z"/>
	<path class="st111" d="M321.52,273.17c-2.7,0.08-3.99-2.06-2.78-4.63c3.57-7.55,6.24-15.43,7.76-23.68
		c3.79-20.63,1.05-40.38-7.74-59.24c-0.29-0.62-0.61-1.22-0.9-1.84c-0.57-1.24-0.7-2.48,0.21-3.6c1.01-1.23,2.22-0.8,3.38-0.28
		c3.23,1.45,6.11,3.53,9.07,5.47c17.01,11.14,33.25,23.35,48.14,37.45c5.44,5.15,5.48,6.5-0.11,11.24
		c-16.6,14.11-34.31,26.54-53.03,37.4C324.2,272.21,322.86,272.94,321.52,273.17z"/>
	<path class="st2222" d="M306.97,228.03c-0.01,40.67-31.76,72.88-71.82,72.87c-40.01-0.01-70.62-32.05-70.8-73.73
		c-0.16-38.96,29.8-74.55,72.74-73.68C278.95,154.34,307.39,188.94,306.97,228.03z M295.07,227.23
		c0.04-34.35-26.49-61.88-59.71-61.93c-32.78-0.06-59.09,27.57-59.1,62.05c0,33.91,26.35,61.66,58.64,61.73
		C268.76,289.15,295.03,262.15,295.07,227.23z"/>
	<path class="st111" d="M295.07,227.23c-0.05,34.92-26.31,61.92-60.17,61.84c-32.29-0.07-58.65-27.82-58.64-61.73
		c0-34.48,26.31-62.1,59.1-62.05C268.58,165.35,295.12,192.88,295.07,227.23z M279.68,213.82c-0.12-12.24-9.6-22.01-21.19-21.86
		c-11.84,0.15-21.22,10.07-21.11,22.33c0.12,12.48,9.64,22.22,21.62,22.11C270.19,236.3,279.8,225.81,279.68,213.82z"/>
	<path class="st2222" d="M279.68,213.82c0.12,11.99-9.49,22.48-20.68,22.58c-11.98,0.11-21.5-9.63-21.62-22.11
		c-0.11-12.26,9.27-22.18,21.11-22.33C270.09,191.81,279.56,201.58,279.68,213.82z"/>
</g>
</svg>
