<?xml version="1.0" encoding="utf-8"?>
<!-- Generator: Adobe Illustrator 28.3.0, SVG Export Plug-In . SVG Version: 6.00 Build 0)  -->
<svg version="1.1" id="Layer_1" xmlns="http://www.w3.org/2000/svg" xmlns:xlink="http://www.w3.org/1999/xlink" x="0px" y="0px"
	 viewBox="0 0 735.41 702.78" style="enable-background:new 0 0 735.41 702.78;" xml:space="preserve">
<style type="text/css">
	.st0{fill:none !important;}
	.st1{fill:none !important;stroke:#101011 !important;stroke-miterlimit:10;}
</style>
<g>
	<g>
		<path class="st0" d="M-297.45,203.34c3.22,0,3.22-5,0-5C-300.66,198.34-300.67,203.34-297.45,203.34L-297.45,203.34z"/>
	</g>
</g>
<g>
	<polygon class="st1" points="365.2,395.37 194.19,294.1 191.99,95.37 189.8,294.1 18.79,395.37 191.99,297.9 	"/>
	<polygon class="st1" points="365.2,395.37 367.39,196.63 538.4,95.37 365.2,192.83 191.99,95.37 363,196.63 	"/>
	<polygon class="st1" points="18.79,395.37 191.99,695.37 189.8,496.63 	"/>
	<polygon class="st1" points="365.2,395.37 191.99,492.83 18.79,395.37 189.8,496.63 191.99,695.37 194.19,496.63 	"/>
	<polygon class="st1" points="365.2,395.37 363,594.1 191.99,695.37 365.2,597.9 538.4,695.37 367.39,594.1 	"/>
	<polygon class="st1" points="538.4,695.37 711.61,395.37 540.6,496.63 	"/>
	<polygon class="st1" points="18.79,395.37 191.99,695.37 20.98,594.1 	"/>
	<polygon class="st1" points="711.61,395.37 538.4,695.37 709.41,594.1 	"/>
	<polygon class="st1" points="711.61,395.37 538.4,695.37 709.41,594.1 	"/>
	<polygon class="st1" points="191.99,96.87 538.4,98.06 365.53,0 	"/>
	<polygon class="st1" points="365.2,395.37 536.21,496.63 538.4,695.37 540.6,496.63 711.61,395.37 538.4,492.83 	"/>
	<polygon class="st1" points="711.61,395.37 711.61,395.36 711.61,395.36 	"/>
	<path class="st1" d="M538.4,95.37L538.4,95.37L538.4,95.37z"/>
	<polygon class="st1" points="365.2,395.37 538.4,297.9 711.61,395.36 711.61,395.36 540.6,294.1 538.4,95.37 538.4,95.37 
		536.21,294.1 	"/>
</g>
<g>
	<polygon class="st1" points="365.2,395.37 194.19,294.1 191.99,95.37 189.8,294.1 18.79,395.37 191.99,297.9 	"/>
	<polygon class="st1" points="365.2,395.37 367.39,196.63 538.4,95.37 365.2,192.83 191.99,95.37 363,196.63 	"/>
	<polygon class="st1" points="18.79,395.37 191.99,695.37 189.8,496.63 	"/>
	<polygon class="st1" points="365.2,395.37 191.99,492.83 18.79,395.37 189.8,496.63 191.99,695.37 194.19,496.63 	"/>
	<polygon class="st1" points="365.2,395.37 363,594.1 191.99,695.37 365.2,597.9 538.4,695.37 367.39,594.1 	"/>
	<polygon class="st1" points="538.4,695.37 711.61,395.37 540.6,496.63 	"/>
	<polygon class="st1" points="18.79,395.37 191.99,695.37 20.98,594.1 	"/>
	<polygon class="st1" points="711.61,395.37 538.4,695.37 709.41,594.1 	"/>
	<polygon class="st1" points="711.61,395.37 538.4,695.37 709.41,594.1 	"/>
	<polygon class="st1" points="191.99,96.87 538.4,98.06 365.53,0 	"/>
	<polygon class="st1" points="365.2,395.37 536.21,496.63 538.4,695.37 540.6,496.63 711.61,395.37 538.4,492.83 	"/>
	<polygon class="st1" points="711.61,395.37 711.61,395.36 711.61,395.36 	"/>
	<path class="st1" d="M538.4,95.37L538.4,95.37L538.4,95.37z"/>
	<polygon class="st1" points="365.2,395.37 538.4,297.9 711.61,395.36 711.61,395.36 540.6,294.1 538.4,95.37 538.4,95.37 
		536.21,294.1 	"/>
</g>
</svg>
