<?xml version="1.0" encoding="utf-8"?>
<!-- Generator: Adobe Illustrator 28.3.0, SVG Export Plug-In . SVG Version: 6.00 Build 0)  -->
<svg version="1.1" id="Layer_1" xmlns="http://www.w3.org/2000/svg" xmlns:xlink="http://www.w3.org/1999/xlink" x="0px" y="0px"
	 viewBox="0 0 178.61 188.68" style="enable-background:new 0 0 178.61 188.68;" xml:space="preserve">
<style type="text/css">
	.st0{display:none;}
	.svg4-01{fill:none;stroke:#FFFFFF !important;stroke-miterlimit:10;}
	.st2{fill:none;stroke:#FFFFFF;stroke-width:1;stroke-miterlimit:10.0003;}
</style>
<g id="Layer_2_00000136390532235973886220000013235609788850754746_" class="st0">
</g>
<g>
	<polygon class="svg4-01" points="108.52,185.13 94.73,158.7 80.2,186.54 137.43,186.54 122.61,158.15 	"/>
	<polygon class="svg4-01" points="70.15,57.67 41.99,57.67 56.8,86.06 70.89,59.08 	"/>
	<polygon class="svg4-01" points="122.75,104.48 122.89,104.75 146.73,59.08 160.53,85.51 175.06,57.67 147.18,57.67 	"/>
	<polygon class="svg4-01" points="70.89,59.08 56.8,86.06 80.79,132 94.87,105.02 	"/>
	<polygon class="svg4-01" points="81.24,132.86 94.73,158.7 108.22,132.86 	"/>
	<polygon class="svg4-01" points="135.81,132.86 109.4,132.86 122.61,158.15 	"/>
	<polygon class="svg4-01" points="122.89,104.75 136.69,131.17 160.53,85.51 146.73,59.08 	"/>
	<polygon class="svg4-01" points="94.73,158.7 108.52,185.13 122.61,158.15 109.4,132.86 108.22,132.86 	"/>
	<polygon class="svg4-01" points="137.57,132.86 136.69,131.17 135.81,132.86 	"/>
	<polygon class="svg4-01" points="80.79,132 80.34,132.86 81.24,132.86 	"/>
	<polygon class="svg4-01" points="108.81,131.72 122.89,104.75 122.75,104.48 108.67,131.45 	"/>
	<polygon class="svg4-01" points="108.22,132.86 108.81,131.72 108.67,131.45 108.67,131.45 94.87,105.02 80.79,132 81.24,132.86 	"/>
	<polygon class="svg4-01" points="108.81,131.72 109.4,132.86 135.81,132.86 136.69,131.17 122.89,104.75 	"/>
	<polygon class="svg4-01" points="109.4,132.86 108.81,131.72 108.22,132.86 	"/>
	<polygon class="svg4-01" points="71.03,5.41 98.32,57.67 119.59,57.67 146.88,5.41 160.67,31.83 175.21,4 42.13,4 56.95,32.38 	"/>
	<polygon class="svg4-01" points="119.59,57.67 98.32,57.67 108.95,78.05 	"/>
	<polygon class="svg4-01" points="71.03,5.41 56.95,32.38 70.15,57.67 98.32,57.67 	"/>
	<polygon class="svg4-01" points="94.87,105.02 108.95,78.05 98.32,57.67 70.15,57.67 70.89,59.08 70.89,59.08 	"/>
	<polygon class="svg4-01" points="56.97,82.05 108.8,82.05 108.8,82.05 	"/>
	<polygon class="svg4-01" points="119.59,57.67 147.18,57.67 160.67,31.83 146.88,5.41 	"/>
	<polygon class="svg4-01" points="108.95,78.05 122.75,104.48 147.18,57.67 119.59,57.67 	"/>
	<polygon class="svg4-01" points="94.87,105.02 108.67,131.45 122.75,104.48 108.95,78.05 	"/>
	<rect x="101.77" y="103.33" class="st2" width="0" height="29.81"/>
</g>
<g>
	<polygon class="svg4-01" points="70.08,5.13 56.28,31.56 41.75,3.72 98.98,3.72 84.16,32.11 	"/>
	<polygon class="svg4-01" points="31.71,132.59 3.54,132.59 18.36,104.2 32.44,131.18 	"/>
	<polygon class="svg4-01" points="84.31,85.78 84.45,85.51 108.29,131.18 122.08,104.75 136.62,132.59 108.74,132.59 	"/>
	<polygon class="svg4-01" points="32.44,131.18 18.36,104.2 42.34,58.26 56.43,85.23 	"/>
	<polygon class="svg4-01" points="42.79,57.4 56.28,31.56 69.77,57.4 	"/>
	<polygon class="svg4-01" points="97.36,57.4 70.96,57.4 84.16,32.11 	"/>
	<polygon class="svg4-01" points="84.45,85.51 98.24,59.08 122.08,104.75 108.29,131.18 	"/>
	<polygon class="svg4-01" points="56.28,31.56 70.08,5.13 84.16,32.11 70.96,57.4 69.77,57.4 	"/>
	<polygon class="svg4-01" points="99.12,57.4 98.24,59.08 97.36,57.4 	"/>
	<polygon class="svg4-01" points="42.34,58.26 41.89,57.4 42.79,57.4 	"/>
	<polygon class="svg4-01" points="70.37,58.53 84.45,85.51 84.31,85.78 70.22,58.81 	"/>
	<polygon class="svg4-01" points="69.77,57.4 70.37,58.53 70.22,58.81 70.22,58.81 56.43,85.23 42.34,58.26 42.79,57.4 	"/>
	<polygon class="svg4-01" points="70.37,58.53 70.96,57.4 97.36,57.4 98.24,59.08 84.45,85.51 	"/>
	<polygon class="svg4-01" points="70.96,57.4 70.37,58.53 69.77,57.4 	"/>
	<polygon class="svg4-01" points="32.59,184.85 59.87,132.59 81.15,132.59 108.43,184.85 122.23,158.42 136.76,186.26 3.68,186.26 
		18.5,157.87 	"/>
	<polygon class="svg4-01" points="81.15,132.59 59.87,132.59 70.51,112.21 	"/>
	<polygon class="svg4-01" points="32.59,184.85 18.5,157.87 31.71,132.59 59.87,132.59 	"/>
	<polygon class="svg4-01" points="56.43,85.23 70.51,112.21 59.87,132.59 31.71,132.59 32.44,131.18 32.44,131.18 	"/>
	<polygon class="svg4-01" points="18.52,108.2 70.35,108.2 70.35,108.2 	"/>
	<polygon class="svg4-01" points="81.15,132.59 108.74,132.59 122.23,158.42 108.43,184.85 	"/>
	<polygon class="svg4-01" points="70.51,112.21 84.31,85.78 108.74,132.59 81.15,132.59 	"/>
	<polygon class="svg4-01" points="56.43,85.23 70.22,58.81 84.31,85.78 70.51,112.21 	"/>
	<polygon class="st2" points="56.43,85.23 70.23,58.81 70.23,58.81 	"/>
</g>
</svg>
