<?xml version="1.0" encoding="utf-8"?>
<!-- Generator: Adobe Illustrator 28.3.0, SVG Export Plug-In . SVG Version: 6.00 Build 0)  -->
<svg version="1.1" id="Layer_1" xmlns="http://www.w3.org/2000/svg" xmlns:xlink="http://www.w3.org/1999/xlink" x="0px" y="0px"
	 viewBox="0 0 803.42 737.97" style="enable-background:new 0 0 803.42 737.97;" xml:space="preserve">
<style type="text/css">
	.st0001{fill:none;stroke:#000000 !important;stroke-width:5;stroke-miterlimit:10;}
</style>
<rect x="177.96" y="49.94" class="st0001" width="144.38" height="129"/>
<rect x="31.79" y="434.94" class="st0001" width="144.38" height="129"/>
<rect x="31.79" y="434.94" class="st0001" width="144.38" height="129"/>
<rect x="177.96" y="563.94" class="st0001" width="144.38" height="129"/>
<rect x="31.79" y="177.94" class="st0001" width="144.38" height="129"/>
<rect x="177.96" y="49.94" class="st0001" width="144.38" height="129"/>
<rect x="31.79" y="434.94" class="st0001" width="144.38" height="129"/>
<rect x="31.79" y="434.94" class="st0001" width="144.38" height="129"/>
<rect x="177.96" y="563.94" class="st0001" width="144.38" height="129"/>
<rect x="31.79" y="177.94" class="st0001" width="144.38" height="129"/>
<rect x="177.96" y="563.93" class="st0001" width="144.38" height="129"/>
<rect x="324.13" y="178.93" class="st0001" width="144.38" height="129"/>
<rect x="324.13" y="178.93" class="st0001" width="144.38" height="129"/>
<rect x="177.96" y="49.93" class="st0001" width="144.38" height="129"/>
<rect x="177.96" y="49.93" class="st0001" width="144.38" height="129"/>
<rect x="324.13" y="435.93" class="st0001" width="144.38" height="129"/>
<rect x="177.96" y="563.93" class="st0001" width="144.38" height="129"/>
<rect x="324.13" y="178.93" class="st0001" width="144.38" height="129"/>
<rect x="324.13" y="178.93" class="st0001" width="144.38" height="129"/>
<rect x="177.96" y="49.93" class="st0001" width="144.38" height="129"/>
<rect x="177.96" y="49.93" class="st0001" width="144.38" height="129"/>
<rect x="177.96" y="49.93" class="st0001" width="144.38" height="129"/>
<rect x="324.13" y="435.93" class="st0001" width="144.38" height="129"/>
<line class="st0001" x1="31.79" y1="177.93" x2="177.96" y2="49.93"/>
<line class="st0001" x1="33.58" y1="564.43" x2="179.75" y2="692.43"/>
<line class="st0001" x1="325.93" y1="692.43" x2="472.1" y2="564.43"/>
<line class="st0001" x1="324.13" y1="49.93" x2="470.3" y2="177.93"/>
<rect x="470.31" y="53.96" class="st0001" width="144.38" height="129"/>
<rect x="324.13" y="438.96" class="st0001" width="144.38" height="129"/>
<rect x="324.13" y="438.96" class="st0001" width="144.38" height="129"/>
<rect x="470.31" y="567.96" class="st0001" width="144.38" height="129"/>
<rect x="324.13" y="181.96" class="st0001" width="144.38" height="129"/>
<rect x="470.31" y="53.96" class="st0001" width="144.38" height="129"/>
<rect x="324.13" y="438.96" class="st0001" width="144.38" height="129"/>
<rect x="324.13" y="438.96" class="st0001" width="144.38" height="129"/>
<rect x="470.31" y="567.96" class="st0001" width="144.38" height="129"/>
<rect x="324.13" y="181.96" class="st0001" width="144.38" height="129"/>
<rect x="470.3" y="567.96" class="st0001" width="144.38" height="129"/>
<rect x="616.47" y="182.96" class="st0001" width="144.38" height="129"/>
<rect x="616.47" y="182.96" class="st0001" width="144.38" height="129"/>
<rect x="470.3" y="53.96" class="st0001" width="144.38" height="129"/>
<rect x="470.3" y="53.96" class="st0001" width="144.38" height="129"/>
<rect x="616.47" y="439.96" class="st0001" width="144.38" height="129"/>
<rect x="470.3" y="567.96" class="st0001" width="144.38" height="129"/>
<rect x="616.47" y="182.96" class="st0001" width="144.38" height="129"/>
<rect x="616.47" y="182.96" class="st0001" width="144.38" height="129"/>
<rect x="470.3" y="53.96" class="st0001" width="144.38" height="129"/>
<rect x="470.3" y="53.96" class="st0001" width="144.38" height="129"/>
<rect x="470.3" y="53.96" class="st0001" width="144.38" height="129"/>
<rect x="616.47" y="439.96" class="st0001" width="144.38" height="129"/>
<line class="st0001" x1="324.13" y1="181.96" x2="470.3" y2="53.96"/>
<line class="st0001" x1="325.93" y1="568.46" x2="472.1" y2="696.46"/>
<line class="st0001" x1="618.27" y1="696.46" x2="764.44" y2="568.46"/>
<line class="st0001" x1="616.47" y1="53.96" x2="762.65" y2="181.96"/>
</svg>
