<?xml version="1.0" encoding="utf-8"?>
<!-- Generator: Adobe Illustrator 28.3.0, SVG Export Plug-In . SVG Version: 6.00 Build 0)  -->
<svg version="1.1" id="Layer_1" xmlns="http://www.w3.org/2000/svg" xmlns:xlink="http://www.w3.org/1999/xlink" x="0px" y="0px"
	 viewBox="0 0 526.74 938.04" style="enable-background:new 0 0 526.74 938.04;" xml:space="preserve">
<style type="text/css">
	.st0{fill:none;stroke:#0B0B0C !important;stroke-width:5;stroke-miterlimit:10;}
	.st1{fill:#FFFFFF;stroke:#0000FF;stroke-width:5;stroke-miterlimit:10;}
	.svg2-01{fill:none;stroke:#000000 !important;stroke-width:5;stroke-miterlimit:10;}
	.st3{fill:none;stroke:#0A0A0C;stroke-width:5;stroke-miterlimit:10;}
	.st4{fill:none;stroke:#0A0A0C;stroke-miterlimit:10;}
	.st5{fill:none;stroke:#0A0A0C;stroke-width:0;stroke-linecap:round;stroke-linejoin:round;}
	.st6{opacity:0.949;fill:none;stroke:#0A0A0C;stroke-width:5;stroke-miterlimit:10;}
</style>
<polygon class="svg2-01" points="195.44,37.38 30.44,367.38 360.44,367.38 "/>
<polygon class="svg2-01" points="335.44,37.38 170.44,367.38 500.44,367.38 "/>
<polygon class="svg2-01" points="195.44,697.38 30.44,367.38 360.44,367.38 "/>
<polygon class="svg2-01" points="335.44,697.38 170.44,367.38 500.44,367.38 "/>
<polygon class="svg2-01" points="195.44,37.38 30.44,367.38 360.44,367.38 "/>
<polygon class="svg2-01" points="335.44,37.38 170.44,367.38 500.44,367.38 "/>
<polygon class="svg2-01" points="195.44,697.38 30.44,367.38 360.44,367.38 "/>
<polygon class="svg2-01" points="335.44,697.38 170.44,367.38 500.44,367.38 "/>
<polygon class="svg2-01" points="195.44,227.38 30.44,557.38 360.44,557.38 "/>
<polygon class="svg2-01" points="335.44,227.38 170.44,557.38 500.44,557.38 "/>
<polygon class="svg2-01" points="195.44,887.38 30.44,557.38 360.44,557.38 "/>
<polygon class="svg2-01" points="335.44,887.38 170.44,557.38 500.44,557.38 "/>
</svg>
